<svg id="Layer_1" data-name="Layer 1" xmlns="http://www.w3.org/2000/svg" xmlns:xlink="http://www.w3.org/1999/xlink" viewBox="0 0 538.66 234.81"><defs><style>.cls-1{fill:url(#linear-gradient);}.cls-2{fill:#f29a1f;}</style><linearGradient id="linear-gradient" x1="74.35" y1="148.82" x2="152.06" y2="78.85" gradientUnits="userSpaceOnUse"><stop offset="0" stop-color="#e05074"/><stop offset="0.3" stop-color="#ef8342"/><stop offset="0.66" stop-color="#f9ac1b"/><stop offset="1" stop-color="#fbc665"/></linearGradient></defs><path class="cls-1" d="M128.47,173.78a5.72,5.72,0,0,1-5.72,5.72h-6.1a5.72,5.72,0,0,1,0-11.44h6.1A5.73,5.73,0,0,1,128.47,173.78ZM81.1,117.41a5.72,5.72,0,0,0-5.71-5.73H61a5.72,5.72,0,1,0,0,11.44H75.39A5.71,5.71,0,0,0,81.1,117.41Zm84.41-5.73H154.44l-.35,0v0H142.93a3.66,3.66,0,0,1-3.64-3.67,3.65,3.65,0,0,1,3.61-3.68h11.19v0a2,2,0,0,1,.35,0h3.05a5.72,5.72,0,0,0,0-11.44H104.32a3.68,3.68,0,0,1,.1-7.36h38.86a5.72,5.72,0,0,0,0-11.44H117.63a3.68,3.68,0,0,1-.23-7.35h10.91a5.72,5.72,0,0,0,0-11.44H95.75a5.72,5.72,0,1,0,0,11.44h3.32a3.68,3.68,0,0,1-.23,7.35H80.94a5.72,5.72,0,1,0,0,11.44h4.68a3.69,3.69,0,0,1,2.61,6.29,3.74,3.74,0,0,1-2.51,1.07H70.1a5.72,5.72,0,0,0,0,11.44h54.13a3.68,3.68,0,0,1,2.54,6.28,3.63,3.63,0,0,1-2.58,1.07H91.91a5.72,5.72,0,1,0,0,11.44h19a3.68,3.68,0,0,1,.27,7.35H73.41a5.72,5.72,0,0,0,0,11.43H92.78a3.69,3.69,0,0,1,2.61,6.29,3.74,3.74,0,0,1-2.47,1.07H87.6a5.72,5.72,0,1,0,0,11.44h49.5a5.72,5.72,0,1,0,0-11.44H111.44a3.68,3.68,0,0,1,.14-7.36H148.4a5.72,5.72,0,1,0,0-11.43H129.48a3.68,3.68,0,0,1-2.33-6.27,3.63,3.63,0,0,1,2.6-1.08h35.76a5.72,5.72,0,0,0,0-11.44Z"/><path class="cls-2" d="M212.65,135.49a20.73,20.73,0,0,1-10.2-2.4,16.43,16.43,0,0,1-6.7-6.82,21.54,21.54,0,0,1-2.36-10.35,20.88,20.88,0,0,1,2.36-10.24,16.16,16.16,0,0,1,6.7-6.63,21.27,21.27,0,0,1,10.2-2.32,24.44,24.44,0,0,1,5.45.68,18.5,18.5,0,0,1,5.52,2.29,3.48,3.48,0,0,1,1.79,2.36,4,4,0,0,1-.38,2.66,3.7,3.7,0,0,1-1.91,1.75,3.11,3.11,0,0,1-2.85-.38,13.79,13.79,0,0,0-6.78-2,9.62,9.62,0,0,0-7.65,3.09c-1.81,2-2.71,5-2.71,8.79s.9,6.72,2.71,8.87a9.4,9.4,0,0,0,7.65,3.24,14.19,14.19,0,0,0,6.78-1.9,3.05,3.05,0,0,1,2.82-.38,3.27,3.27,0,0,1,1.75,1.79,4.37,4.37,0,0,1,.23,2.66,3.67,3.67,0,0,1-1.76,2.33,18.65,18.65,0,0,1-5.33,2.2A22.35,22.35,0,0,1,212.65,135.49Z"/><path class="cls-2" d="M247.6,135.49a20.48,20.48,0,0,1-10-2.36,16.41,16.41,0,0,1-6.62-6.74,21.37,21.37,0,0,1-2.36-10.32,21.13,21.13,0,0,1,2.36-10.28,16.49,16.49,0,0,1,6.62-6.7,22.6,22.6,0,0,1,20.11,0,16.49,16.49,0,0,1,6.62,6.7,21.24,21.24,0,0,1,2.36,10.28,21.48,21.48,0,0,1-2.36,10.32,16.41,16.41,0,0,1-6.62,6.74A20.52,20.52,0,0,1,247.6,135.49Zm0-7.24a8.5,8.5,0,0,0,6.86-3.08c1.72-2.06,2.59-5.09,2.59-9.1s-.87-7.09-2.59-9.1a9.31,9.31,0,0,0-13.71,0q-2.59,3-2.59,9.1t2.59,9.1A8.49,8.49,0,0,0,247.6,128.25Z"/><path class="cls-2" d="M287.2,135.49q-12.72,0-12.72-14.24v-36c0-3.2,1.58-4.8,4.72-4.8s4.8,1.6,4.8,4.8v35.56q0,6.85,5.71,6.86c.41,0,.79,0,1.15,0s.71-.07,1.06-.12a1.27,1.27,0,0,1,1.45.57,7.44,7.44,0,0,1,.38,2.94,5.06,5.06,0,0,1-.76,3,3.44,3.44,0,0,1-2.52,1.3A23.31,23.31,0,0,1,287.2,135.49Z"/><path class="cls-2" d="M303.65,135.34q-4.72,0-4.72-4.88V101.68q0-4.8,4.64-4.8t4.65,4.8v1.52a12.07,12.07,0,0,1,4.64-4.76,13.51,13.51,0,0,1,6.86-1.71q8.37,0,11,7.31a12.9,12.9,0,0,1,5-5.37,14.29,14.29,0,0,1,7.46-1.94q12.57,0,12.56,15.31v18.42c0,3.25-1.59,4.88-4.79,4.88s-4.72-1.63-4.72-4.88v-18q0-4.28-1.41-6.25t-4.76-2a7.13,7.13,0,0,0-5.86,2.63,11.17,11.17,0,0,0-2.14,7.27v16.37q0,4.88-4.72,4.88t-4.8-4.88v-18q0-4.28-1.4-6.25c-.94-1.32-2.51-2-4.69-2a7.13,7.13,0,0,0-5.86,2.63,11.23,11.23,0,0,0-2.13,7.27v16.37Q308.45,135.34,303.65,135.34Z"/><path class="cls-2" d="M383.91,135.49A23.52,23.52,0,0,1,373,133.13a16.75,16.75,0,0,1-7-6.7A22.56,22.56,0,0,1,365.9,106a17.67,17.67,0,0,1,6.63-6.82,18.66,18.66,0,0,1,9.63-2.47q7.92,0,12.52,5t4.61,13.71c0,1.88-1.21,2.82-3.65,2.82h-23q1.07,10,11.42,10a23,23,0,0,0,4.46-.49,16.24,16.24,0,0,0,4.68-1.71,4.28,4.28,0,0,1,3.35-.73,3,3,0,0,1,1.94,1.64,3.82,3.82,0,0,1,.16,2.7,4.52,4.52,0,0,1-2.17,2.55,19.73,19.73,0,0,1-6.14,2.48A28.81,28.81,0,0,1,383.91,135.49Zm-1.37-32.29a9.21,9.21,0,0,0-6.78,2.59,11.53,11.53,0,0,0-3.12,7h18.73a11.36,11.36,0,0,0-2.55-7.12A8.06,8.06,0,0,0,382.54,103.2Z"/><path class="cls-2" d="M411.55,135.34q-4.73,0-4.72-4.88V101.68q0-4.8,4.64-4.8t4.65,4.8v1.6a12.7,12.7,0,0,1,5.14-4.88,15.66,15.66,0,0,1,7.27-1.67q13.19,0,13.18,15.31v18.42q0,4.88-4.73,4.88t-4.79-4.88v-18q0-4.33-1.64-6.32a6.19,6.19,0,0,0-5.06-2,8.73,8.73,0,0,0-6.67,2.63,9.74,9.74,0,0,0-2.47,7v16.67Q416.35,135.34,411.55,135.34Z"/><path class="cls-2" d="M463.64,135.49a16.07,16.07,0,0,1-7.2-1.56,12.39,12.39,0,0,1-4.95-4.23,10.57,10.57,0,0,1-1.79-6,9.46,9.46,0,0,1,2.13-6.52q2.15-2.4,6.93-3.46a61.82,61.82,0,0,1,12.87-1.07h2.67V111q0-3.8-1.68-5.48T467,103.89a23.66,23.66,0,0,0-4.76.53,24.74,24.74,0,0,0-5.37,1.83,3.35,3.35,0,0,1-3,.19,3.26,3.26,0,0,1-1.64-2.06,4.25,4.25,0,0,1,.15-2.85,3.81,3.81,0,0,1,2.32-2.14,34.27,34.27,0,0,1,6.74-2,31.78,31.78,0,0,1,5.9-.61q8.15,0,12.11,3.77t4,11.69v18.27q0,4.88-4.42,4.88t-4.49-4.88v-1.67a10.35,10.35,0,0,1-4.11,4.91A12.26,12.26,0,0,1,463.64,135.49Zm2-6.55a8.21,8.21,0,0,0,6.2-2.59,9.09,9.09,0,0,0,2.48-6.55v-1.67h-2.59c-4.77,0-8.09.36-9.94,1.1a4,4,0,0,0-2.78,4,5.35,5.35,0,0,0,1.75,4.11A7,7,0,0,0,465.62,128.94Z"/></svg>