<?xml version="1.0" encoding="UTF-8" standalone="no"?>
<svg
   viewBox="0 0 97.630111 105"
   version="1.1"
   id="svg32"
   sodipodi:docname="IconColmena_color.svg"
   width="97.630112"
   height="105"
   inkscape:version="1.1.2 (1:1.1+202202050950+0a00cf5339)"
   xmlns:inkscape="http://www.inkscape.org/namespaces/inkscape"
   xmlns:sodipodi="http://sodipodi.sourceforge.net/DTD/sodipodi-0.dtd"
   xmlns="http://www.w3.org/2000/svg"
   xmlns:svg="http://www.w3.org/2000/svg">
  <sodipodi:namedview
     id="namedview34"
     pagecolor="#ffffff"
     bordercolor="#666666"
     borderopacity="1.0"
     inkscape:pageshadow="2"
     inkscape:pageopacity="0.0"
     inkscape:pagecheckerboard="0"
     showgrid="false"
     inkscape:zoom="1.767767"
     inkscape:cx="35.921024"
     inkscape:cy="47.800418"
     inkscape:window-width="1600"
     inkscape:window-height="836"
     inkscape:window-x="0"
     inkscape:window-y="27"
     inkscape:window-maximized="1"
     inkscape:current-layer="svg32" />
  <defs
     id="defs13">
    <style
       id="style2">.cls-1{fill:url(#linear-gradient);}.cls-2{fill:#f29a1f;}</style>
    <linearGradient
       id="linear-gradient"
       x1="40.639999"
       y1="3750.8601"
       x2="106.37"
       y2="3810.04"
       gradientTransform="matrix(1,0,0,-1,-24.709943,3829.91)"
       gradientUnits="userSpaceOnUse">
      <stop
         offset="0"
         stop-color="#e05074"
         id="stop4" />
      <stop
         offset="0.3"
         stop-color="#ef8342"
         id="stop6" />
      <stop
         offset="0.66"
         stop-color="#f9ac1b"
         id="stop8" />
      <stop
         offset="1"
         stop-color="#fbc665"
         id="stop10" />
    </linearGradient>
  </defs>
  <path
     class="cls-1"
     d="m 61.690057,100.14 a 4.84,4.84 0 0 1 -4.84,4.86 h -5.16 a 4.84,4.84 0 0 1 0,-9.68 h 5.16 a 4.85,4.85 0 0 1 4.84,4.82 z m -40.07,-47.67 a 4.84,4.84 0 0 0 -4.83,-4.84 H 4.6200568 a 4.84,4.84 0 0 0 0,9.67 H 16.790057 a 4.83,4.83 0 0 0 4.84,-4.82 v 0 z m 71.39,-4.84 h -9.64 v 0 h -9.43 a 3.12,3.12 0 0 1 0,-6.23 h 9.46 v 0 h 2.89 a 4.84,4.84 0 1 0 0.32,-9.67 h -45.32 a 3.1103255,3.1103255 0 0 1 0.09,-6.22 h 32.83 a 4.84,4.84 0 0 0 0,-9.68 h -21.69 a 3.11,3.11 0 0 1 -2.23,-5.25 3,3 0 0 1 2,-0.9 h 9.24 a 4.84,4.84 0 0 0 0,-9.68 h -27.52 a 4.84,4.84 0 1 0 0,9.68 h 2.81 a 3.11,3.11 0 0 1 -0.2,6.21 h -15.13 a 4.8426439,4.8426439 0 0 0 -0.32,9.68 h 4.28 a 3.11,3.11 0 0 1 2.2,5.31 3.15,3.15 0 0 1 -2.12,0.91 h -13.19 a 4.84,4.84 0 0 0 -0.31,9.67 h 46.09 a 3.11,3.11 0 0 1 0,6.22 h -27.36 a 4.84,4.84 0 0 0 -0.31,9.67 h 16.43 a 3.1121255,3.1121255 0 0 1 0.23,6.22 h -31.95 a 4.84,4.84 0 0 0 0,9.67 h 16.38 a 3.1105787,3.1105787 0 0 1 0.12,6.22 h -4.5 a 4.84,4.84 0 0 0 0,9.67 h 41.87 a 4.84,4.84 0 0 0 0,-9.67 h -21.74 a 3.1105787,3.1105787 0 0 1 0.12,-6.22 h 31.11 a 4.84,4.84 0 0 0 0.31,-9.67 h -16.29 a 3.1121255,3.1121255 0 0 1 0.23,-6.22 h 30.24 a 4.84,4.84 0 0 0 0,-9.67 z"
     id="path15"
     style="fill:url(#linear-gradient)" />
</svg>
